name C:\Users\u0101727\Documents\MyRepositories\upper-imu-dc\Results\main_tracking\Case_51\kinematics_filtered.mot
datacolumns 10
datarows 47
range 2.04000000 2.50000000
endheader 
time	clav_prot	clav_elev	scapula_abduction	scapula_elevation	scapula_upward_rot	scapula_winging	plane_elv	shoulder_elv	axial_rot	
          2.04000000	        -21.65601488	          8.65567984	         -8.70395936	          3.13207823	         23.51592537	          0.43239954	          7.65188936	          7.50307025	         23.18610393	
          2.05000000	        -21.59301149	          8.27702020	         -8.72477440	          2.95784862	         23.08439951	          0.56405870	          6.89749741	          7.83603555	         23.51085766	
          2.06000000	        -21.52579533	          7.89224927	         -8.72786872	          2.77714500	         22.66304722	          0.69518305	          6.11902496	          8.17145224	         23.81168065	
          2.07000000	        -21.46232651	          7.50140243	         -8.72528464	          2.58850068	         22.25584324	          0.82458932	          5.31729709	          8.50684719	         24.08968446	
          2.08000000	        -21.40697099	          7.10539927	         -8.72296448	          2.39132943	         21.86670401	          0.95115630	          4.49397315	          8.83988648	         24.34649497	
          2.09000000	        -21.36172516	          6.70599281	         -8.72318865	          2.18590751	         21.49912084	          1.07390478	          3.65138933	          9.16846993	         24.58435402	
          2.10000000	        -21.32724518	          6.30558464	         -8.72656288	          1.97325754	         21.15583791	          1.19206622	          2.79238687	          9.49080372	         24.80619236	
          2.11000000	        -21.30361435	          5.90696894	         -8.73345156	          1.75497836	         20.83859819	          1.30513633	          1.92014084	          9.80544712	         25.01566197	
          2.12000000	        -21.29082312	          5.51305433	         -8.74483000	          1.53305532	         20.54796942	          1.41291145	          1.03800032	         10.11133317	         25.21712275	
          2.13000000	        -21.28896613	          5.12659644	         -8.76257880	          1.30967287	         20.28325695	          1.51550611	          0.14934701	         10.40776600	         25.41558341	
          2.14000000	        -21.29817607	          4.74995978	         -8.78926450	          1.08704052	         20.04250871	          1.61334947	         -0.74252318	         10.69439891	         25.61660067	
          2.15000000	        -21.31831567	          4.38491684	         -8.82744727	          0.86723530	         19.82261832	          1.70715822	         -1.63449315	         10.97119853	         25.82614230	
          2.16000000	        -21.34843785	          4.03248711	         -8.87853202	          0.65206058	         19.61953284	          1.79788215	         -2.52369049	         11.23839952	         26.05041968	
          2.17000000	        -21.38600575	          3.69281863	         -8.94114715	          0.44292283	         19.42856874	          1.88661878	         -3.40752600	         11.49645132	         26.29569517	
          2.18000000	        -21.42610873	          3.36513258	         -9.00948201	          0.24073044	         19.24483030	          1.97450565	         -4.28370169	         11.74595560	         26.56806725	
          2.19000000	        -21.46118526	          3.04776295	         -9.07252360	          0.04581793	         19.06369710	          2.06261906	         -5.15018347	         11.98759968	         26.87323312	
          2.20000000	        -21.48102449	          2.73825900	         -9.11381346	         -0.14209889	         18.88131583	          2.15188795	         -6.00514402	         12.22209582	         27.21623630	
          2.21000000	        -21.47204920	          2.43346532	         -9.10995310	         -0.32392976	         18.69503604	          2.24299582	         -6.84689538	         12.45012679	         27.60121951	
          2.22000000	        -21.41928415	          2.12984341	         -9.03396377	         -0.50117665	         18.50376415	          2.33628538	         -7.67382184	         12.67229103	         28.03119759	
          2.23000000	        -21.31583694	          1.82440504	         -8.87218122	         -0.67585544	         18.30819618	          2.43174464	         -8.48431259	         12.88905122	         28.50785504	
          2.24000000	        -21.17061879	          1.51552255	         -8.63815475	         -0.85034542	         18.11082840	          2.52908765	         -9.27669915	         13.10069655	         29.03138395	
          2.25000000	        -21.00300943	          1.20272602	         -8.36336720	         -1.02714558	         17.91566000	          2.62784909	        -10.04920459	         13.30732783	         29.60038471	
          2.26000000	        -20.83309913	          0.88614531	         -8.08018539	         -1.20857166	         17.72762775	          2.72745383	        -10.79990517	         13.50887266	         30.21183768	
          2.27000000	        -20.67784659	          0.56637032	         -7.81545375	         -1.39646193	         17.55190983	          2.82728111	        -11.52670775	         13.70512424	         30.86114841	
          2.28000000	        -20.55067902	          0.24450876	         -7.59022322	         -1.59193934	         17.39322833	          2.92672678	        -12.22735126	         13.89578646	         31.54227432	
          2.29000000	        -20.46139067	         -0.07780695	         -7.41994313	         -1.79524836	         17.25522951	          3.02525386	        -12.89943697	         14.08051367	         32.24793588	
          2.30000000	        -20.41620364	         -0.39846460	         -7.31485216	         -2.00566973	         17.13998475	          3.12242929	        -13.54048729	         14.25894271	         32.96990598	
          2.31000000	        -20.41787502	         -0.71496632	         -7.28035254	         -2.22151096	         17.04763747	          3.21794806	        -14.14803068	         14.43071779	         33.69936329	
          2.32000000	        -20.46577259	         -1.02456797	         -7.31722174	         -2.44016998	         16.97621551	          3.31164655	        -14.71970777	         14.59550968	         34.42728797	
          2.33000000	        -20.55588405	         -1.32445865	         -7.42159037	         -2.65827093	         16.92163019	          3.40350629	        -15.25339174	         14.75303048	         35.14487322	
          2.34000000	        -20.68076483	         -1.61197237	         -7.58468265	         -2.87187240	         16.87788519	          3.49364702	        -15.74731414	         14.90304416	         35.84392300	
          2.35000000	        -20.82945976	         -1.88482088	         -7.79237155	         -3.07674620	         16.83751486	          3.58230628	        -16.20018656	         15.04537239	         36.51720718	
          2.36000000	        -20.98744481	         -2.14133083	         -8.02462954	         -3.26871749	         16.79225548	          3.66980188	        -16.61130824	         15.17989369	         37.15874850	
          2.37000000	        -21.13660989	         -2.38066256	         -8.25493481	         -3.44404237	         16.73391763	          3.75647431	        -16.98065064	         15.30653393	         37.76402287	
          2.38000000	        -21.25526475	         -2.60298098	         -8.44966119	         -3.59977814	         16.65537145	          3.84261257	        -17.30891024	         15.42524653	         38.33006208	
          2.39000000	        -21.31812831	         -2.80955136	         -8.56747553	         -3.73408840	         16.55150226	          3.92837640	        -17.59751998	         15.53598029	         38.85545510	
          2.40000000	        -21.30117411	         -3.00236668	         -8.56738951	         -3.84644103	         16.41997988	          4.01373455	        -17.84861654	         15.63863751	         39.34025378	
          2.41000000	        -21.19616791	         -3.18294346	         -8.43402631	         -3.93768324	         16.26170760	          4.09843420	        -18.06497155	         15.73303470	         39.78580346	
          2.42000000	        -21.01996683	         -3.35147941	         -8.19396092	         -4.00997292	         16.08084447	          4.18200404	        -18.24989249	         15.81888125	         40.19452743	
          2.43000000	        -20.80382878	         -3.50753605	         -7.89727207	         -4.06654815	         15.88436112	          4.26378526	        -18.40709056	         15.89578821	         40.56968645	
          2.44000000	        -20.57790513	         -3.65106504	         -7.59087506	         -4.11137363	         15.68121531	          4.34298896	        -18.54052238	         15.96331237	         40.91512457	
          2.45000000	        -20.36605518	         -3.78262034	         -7.31007950	         -4.14874244	         15.48133232	          4.41877477	        -18.65422673	         16.02102168	         41.23501268	
          2.46000000	        -20.18606440	         -3.90317142	         -7.07962442	         -4.18289508	         15.29457347	          4.49033522	        -18.75217519	         16.06855923	         41.53360396	
          2.47000000	        -20.05017955	         -4.01392548	         -6.91518990	         -4.21768848	         15.12981485	          4.55697162	        -18.83814633	         16.10569306	         41.81501345	
          2.48000000	        -19.96579461	         -4.11617022	         -6.82505872	         -4.25632952	         14.99419805	          4.61815448	        -18.91562758	         16.13235021	         42.08303206	
          2.49000000	        -19.93614834	         -4.21114480	         -6.81167307	         -4.30117743	         14.89257733	          4.67356625	        -18.98774608	         16.14863600	         42.34098304	
          2.50000000	        -19.96094484	         -4.29994297	         -6.87293061	         -4.35361579	         14.82716892	          4.72312633	        -19.05722734	         16.15483999	         42.59162659	
